# xmcd CD database file
#
# Track frame offsets:
#	183
#	16863
#	29548
#	43130
#	52933
#	72425
#	90133
#	106425
#	119885
#	137853
#	151053
#	178275
#	193108
#	202280
#	212095
#	227390
#
# Disc length: 3208 seconds
#
# Revision: 1
# Processed by: cddbd v1.5.1PL0 Copyright (c) Steve Scherf et al.
# Submitted via: CDex 1.51
#
DISCID=e60c8610
DTITLE=RAY CHARLES - grandes exitos
DYEAR=1900
DGENRE=Jazz
TTITLE0=Georgia on my mind
TTITLE1=Yesterday
TTITLE2=Eleanor Rigby
TTITLE3=Busted
TTITLE4=I can't stop loving you
TTITLE5=Ruby
TTITLE6=Come rain come shine
TTITLE7=Crying time
TTITLE8=What'd I say
TTITLE9=Unchained my heart
TTITLE10=I gotta woman
TTITLE11=Born to lose
TTITLE12=Hit the road Jack
TTITLE13=Yes-indeed
TTITLE14=Here we go again
TTITLE15=Take these chains from my heart
EXTD=
EXTT0=
EXTT1=
EXTT2=
EXTT3=
EXTT4=
EXTT5=
EXTT6=
EXTT7=
EXTT8=
EXTT9=
EXTT10=
EXTT11=
EXTT12=
EXTT13=
EXTT14=
EXTT15=
PLAYORDER=
